<svg width="40" height="40" viewBox="0 0 40 40" fill="none" xmlns="http://www.w3.org/2000/svg">
<rect width="40" height="40" rx="20" fill="#F0F1F8"/>
<g clip-path="url(#clip0_1_64)">
<path d="M20.0001 23.8452L22.6741 25.2505C23.1948 25.5238 23.8028 25.0818 23.7035 24.5025L23.1928 21.5252L25.3568 19.4178C25.7781 19.0072 25.5461 18.2918 24.9635 18.2072L21.9741 17.7725L20.6375 15.0625C20.3775 14.5352 19.6248 14.5352 19.3648 15.0625L18.0275 17.7725L15.0381 18.2072C14.4561 18.2918 14.2235 19.0072 14.6448 19.4178L16.8088 21.5252L16.2981 24.5025C16.1988 25.0818 16.8068 25.5245 17.3275 25.2505L20.0015 23.8452H20.0001Z" fill="#F2B234"/>
</g>
<defs>
<clipPath id="clip0_1_64">
<rect width="16" height="16" fill="white" transform="translate(12 12)"/>
</clipPath>
</defs>
</svg>
